<svg width="160" height="40" viewBox="0 0 160 40" fill="none" xmlns="http://www.w3.org/2000/svg">
  <rect x="2" y="2" width="36" height="36" rx="18" fill="#4CAF50" fillOpacity="0.1" stroke="#4CAF50" strokeWidth="2"/>
  <path d="M13 20L19 26L27 14" stroke="#4CAF50" strokeWidth="3" strokeLinecap="round" strokeLinejoin="round"/>
  <path d="M50 13L54 27H56L60 13H58L55 24L52 13H50Z" fill="#333333"/>
  <path d="M63 13V27H65V13H63Z" fill="#333333"/>
  <path d="M69 13V27H71V20.5C71 18.5 72 17 74 17C75.5 17 76.5 18 76.5 20V27H78.5V19.5C78.5 16.5 76.5 15 74 15C72.5 15 71.5 15.5 71 16V13H69Z" fill="#333333"/>
  <path d="M82 20C82 24 84 28 88 28C90 28 91.5 27 92 25.5V27H94V13H92V15C91.5 13.5 90 12 88 12C84 12 82 16 82 20ZM92 20C92 23 90.5 26 88 26C85.5 26 84 23 84 20C84 17 85.5 14 88 14C90.5 14 92 17 92 20Z" fill="#333333"/>
  <path d="M103 28C107 28 110 25 110 20C110 15 107 12 103 12C99 12 96 15 96 20C96 25 99 28 103 28ZM103 26C100 26 98 23.5 98 20C98 16.5 100 14 103 14C106 14 108 16.5 108 20C108 23.5 106 26 103 26Z" fill="#333333"/>
  <path d="M114 27H116V13H114V27ZM115 11C115.8 11 116.5 10.3 116.5 9.5C116.5 8.7 115.8 8 115 8C114.2 8 113.5 8.7 113.5 9.5C113.5 10.3 114.2 11 115 11Z" fill="#333333"/>
  <path d="M120 13V27H122V13H120Z" fill="#333333"/>
  <path d="M127 13V27H129V13H127Z" fill="#333333"/>
</svg> 